<?xml version="1.0" encoding="UTF-8"?>
<svg id="Ebene_1" xmlns="http://www.w3.org/2000/svg" version="1.1" viewBox="0 0 2490 2725">
  <!-- Generator: Adobe Illustrator 29.7.1, SVG Export Plug-In . SVG Version: 2.1.1 Build 8)  -->
  <defs>
    <style>
      .st0 {
        fill: #72716d;
      }

      .st1 {
        fill: #55544f;
      }

      .st2 {
        fill: #fff;
      }

      .st3 {
        fill: #43413c;
      }

      .st4 {
        fill: #d6d5d2;
      }
    </style>
  </defs>
  <path class="st0" d="M1245,1362.5l1120.29,646.8c-6.88,11.92-16.87,22.1-29.22,29.22l-1047.11,604.54c-27.19,15.7-60.73,15.7-87.91,0L153.94,2038.52c-12.36-7.12-22.34-17.3-29.22-29.22l1120.29-646.8h0Z"/>
  <path class="st1" d="M1245,70.16v1292.34L124.72,2009.3c-6.88-11.92-10.71-25.69-10.71-39.93V755.64c0-28.55,15.22-54.86,39.93-69.16L1201,81.94c13.62-7.85,28.79-11.78,43.96-11.78h.05Z"/>
  <path class="st3" d="M2365.25,715.7c-6.88-11.92-16.87-22.1-29.22-29.22L1288.91,81.94c-13.57-7.85-28.74-11.78-43.91-11.78v1292.34l1120.29,646.8c6.88-11.92,10.71-25.69,10.71-39.93V755.64c0-14.3-3.78-27.96-10.71-39.93h-.05Z"/>
  <path class="st4" d="M2286.88,760.97c6.35,10.95,7.22,25.01,0,37.51l-1016.92,1761.27c-6.83,11.92-25.01,7.03-25.01-6.69v-1160.61c0-9.26-2.47-18.17-6.98-25.98l1048.85-605.56h.05v.05Z"/>
  <path class="st2" d="M2286.88,760.97l-1048.85,605.56c-4.46-7.75-10.95-14.35-19-19L213.94,767.22c-11.92-6.83-7.03-25.01,6.69-25.01h2033.78c14.44,0,26.17,7.8,32.47,18.76Z"/>
</svg>